<svg width="140" height="42" viewBox="0 0 140 42" fill="none" xmlns="http://www.w3.org/2000/svg">
<path d="M11.4466 32.628C8.28771 32.628 5.69877 31.9401 3.67972 30.5642C1.66066 29.1883 0.439463 27.2228 0.0161133 24.6676L5.68248 23.1934C5.91044 24.34 6.28494 25.2408 6.80599 25.896C7.3596 26.5512 8.02719 27.0262 8.80876 27.3211C9.62289 27.5831 10.5022 27.7142 11.4466 27.7142C12.8794 27.7142 13.9378 27.4685 14.6217 26.9771C15.3055 26.4529 15.6475 25.8141 15.6475 25.0607C15.6475 24.3072 15.3218 23.7339 14.6705 23.3408C14.0192 22.915 12.9771 22.571 11.5442 22.3089L10.1765 22.0632C8.4831 21.7356 6.93625 21.2934 5.53594 20.7365C4.13563 20.1468 3.01213 19.3442 2.16543 18.3287C1.31873 17.3131 0.895378 16.0028 0.895378 14.3976C0.895378 11.9734 1.77464 10.1225 3.53317 8.84488C5.2917 7.53452 7.60384 6.87933 10.4696 6.87933C13.1725 6.87933 15.4195 7.48538 17.2106 8.69747C19.0017 9.90956 20.1741 11.4984 20.7277 13.4639L15.0125 15.2329C14.7519 13.9881 14.2146 13.1036 13.4005 12.5794C12.6189 12.0553 11.6419 11.7932 10.4696 11.7932C9.29724 11.7932 8.40169 12.0061 7.78295 12.432C7.16421 12.8251 6.85484 13.382 6.85484 14.1027C6.85484 14.889 7.18049 15.4786 7.8318 15.8717C8.4831 16.2321 9.36237 16.5105 10.4696 16.7071L11.8373 16.9528C13.661 17.2804 15.3055 17.7226 16.771 18.2795C18.269 18.8037 19.4413 19.5735 20.288 20.589C21.1673 21.5718 21.6069 22.9149 21.6069 24.6184C21.6069 27.1736 20.6788 29.1556 18.8226 30.5642C16.9989 31.9401 14.5403 32.628 11.4466 32.628Z" fill="white"/>
<path d="M34.0808 31.9402C32.4851 31.9402 31.1825 31.4488 30.173 30.466C29.196 29.4505 28.7075 28.1074 28.7075 26.4367V12.6778H22.6504V7.56737H28.7075V0H34.8624V7.56737H41.5057V12.6778H34.8624V25.3556C34.8624 26.3384 35.3183 26.8298 36.2301 26.8298H40.9195V31.9402H34.0808Z" fill="white"/>
<path d="M80.0235 32.628C77.6137 32.628 75.4807 32.1203 73.6244 31.1047C71.8008 30.0565 70.3679 28.5987 69.3258 26.7314C68.3163 24.8314 67.8115 22.6037 67.8115 20.0485V19.4589C67.8115 16.9036 68.3163 14.6924 69.3258 12.8251C70.3353 10.9251 71.7519 9.46731 73.5756 8.45177C75.3992 7.40348 77.516 6.87933 79.9258 6.87933C82.3031 6.87933 84.371 7.41986 86.1295 8.50091C87.8881 9.54921 89.2558 11.0234 90.2328 12.9234C91.2097 14.7907 91.6982 16.9692 91.6982 19.4589V21.5718H74.0641C74.1292 23.2425 74.7479 24.602 75.9203 25.6503C77.0926 26.6986 78.5255 27.2228 80.2189 27.2228C81.9449 27.2228 83.2149 26.8461 84.0291 26.0926C84.8432 25.3391 85.4619 24.5038 85.8853 23.5865L90.9166 26.24C90.4607 27.0917 89.7931 28.0254 88.9139 29.0409C88.0672 30.0237 86.9274 30.8754 85.4945 31.5961C84.0616 32.2841 82.238 32.628 80.0235 32.628ZM74.1129 16.9528H85.4457C85.3154 15.5441 84.7455 14.4139 83.736 13.5622C82.759 12.7105 81.4727 12.2846 79.877 12.2846C78.2161 12.2846 76.8973 12.7105 75.9203 13.5622C74.9433 14.4139 74.3409 15.5441 74.1129 16.9528Z" fill="white"/>
<path d="M53.9718 32.628C51.562 32.628 49.4289 32.1203 47.5727 31.1047C45.749 30.0565 44.3162 28.5987 43.2741 26.7314C42.2645 24.8314 41.7598 22.6037 41.7598 20.0485V19.4589C41.7598 16.9036 42.2645 14.6924 43.2741 12.8251C44.2836 10.9251 45.7002 9.46731 47.5238 8.45177C49.3475 7.40348 51.4643 6.87933 53.8741 6.87933C56.2514 6.87933 58.3193 7.41986 60.0778 8.50091C61.8363 9.54921 63.2041 11.0234 64.181 12.9234C65.158 14.7907 65.6465 16.9692 65.6465 19.4589V21.5718H48.0123C48.0775 23.2425 48.6962 24.602 49.8686 25.6503C51.0409 26.6986 52.4738 27.2228 54.1672 27.2228C55.8932 27.2228 57.1632 26.8461 57.9773 26.0926C58.7915 25.3391 59.4102 24.5038 59.8336 23.5865L64.8649 26.24C64.409 27.0917 63.7414 28.0254 62.8621 29.0409C62.0154 30.0237 60.8757 30.8754 59.4428 31.5961C58.0099 32.2841 56.1862 32.628 53.9718 32.628ZM48.0612 16.9528H59.3939C59.2637 15.5441 58.6938 14.4139 57.6842 13.5622C56.7073 12.7105 55.4209 12.2846 53.8252 12.2846C52.1644 12.2846 50.8455 12.7105 49.8686 13.5622C48.8916 14.4139 48.2891 15.5441 48.0612 16.9528Z" fill="white"/>
<path d="M93.8433 31.9402V24.5694L107.13 13.464V12.6778H94.3317V7.56738H113.871V14.9382L100.584 26.0436V26.8298H114.262V31.9402H93.8433Z" fill="white"/>
<path d="M0 41.768V36.3627H132.575C133.487 36.3627 133.943 35.8713 133.943 34.8885V28.7462H133.064C132.803 29.3031 132.396 29.86 131.842 30.4169C131.289 30.9738 130.54 31.4324 129.595 31.7928C128.651 32.1531 127.446 32.3333 125.981 32.3333C124.092 32.3333 122.431 31.9075 120.998 31.0557C119.598 30.1712 118.507 28.9591 117.725 27.4194C116.944 25.8798 116.553 24.1108 116.553 22.1125V7.56738H122.708V21.6211C122.708 23.4556 123.147 24.8315 124.027 25.7487C124.939 26.666 126.225 27.1246 127.886 27.1246C129.774 27.1246 131.24 26.5022 132.282 25.2573C133.324 23.9797 133.845 22.2107 133.845 19.9504V7.56738H140V36.2644C140 37.9351 139.512 39.2619 138.535 40.2447C137.558 41.2602 136.255 41.768 134.627 41.768H0Z" fill="white"/>
</svg>
